<svg width="20" height="20" viewBox="0 0 20 20" fill="none" xmlns="http://www.w3.org/2000/svg">
<g clip-path="url(#clip0_2_16)">
<path d="M15 14H13.441L3.741 3.327C3.64724 3.22395 3.53298 3.14164 3.40555 3.08532C3.27811 3.02901 3.14032 2.99995 3.001 3H0V5H2.559L6.649 9.5L2.559 14.001H0V16.001H3.001C3.14032 16.001 3.27811 15.972 3.40555 15.9157C3.53298 15.8594 3.64724 15.777 3.741 15.674L8 10.987L12.259 15.673C12.3528 15.776 12.467 15.8584 12.5945 15.9147C12.7219 15.971 12.8597 16 12.999 16H15V19L20 15L15 11V14Z" fill="white"/>
<path d="M13.55 6H15.109V9L20.109 5.062L15.109 1V4H13.108C12.9687 3.99995 12.8309 4.02901 12.7035 4.08532C12.576 4.14164 12.4618 4.22395 12.368 4.327L9 8.034L10.48 9.38L13.55 6Z" fill="white"/>
</g>
<defs>
<clipPath id="clip0_2_16">
<rect width="20" height="20" fill="white"/>
</clipPath>
</defs>
</svg>
